<?xml version="1.0" standalone="no"?><!DOCTYPE svg PUBLIC "-//W3C//DTD SVG 1.1//EN" "http://www.w3.org/Graphics/SVG/1.1/DTD/svg11.dtd"><svg t="1786762526386" class="icon" viewBox="0 0 1024 1024" version="1.1" xmlns="http://www.w3.org/2000/svg" p-id="12126" xmlns:xlink="http://www.w3.org/1999/xlink" width="200" height="200"><path d="M0 0h1024v1024H0z" fill="#FEFEFE" p-id="12127"></path><path d="M0 0h1024v1024H0V0z m697.36 152.32c-0.43-0.14-0.81-0.05-1.13 0.26-0.84 2.41-1.79 4.79-2.82 7.13-1.3 3.87-1.31 7.73-0.03 11.59 0.25 0.46 0.63 0.68 1.14 0.68-2.57 21.67 30.72 27.01 32.98-0.45 0.45 0.19 0.83 0.09 1.14-0.28 2.17-7.1 5.91-12.06 3.56-19.98-0.16-0.87-0.68-1.26-1.56-1.17 0.53-2.73 0.93-5.48 1.21-8.24 0.46 0.19 0.86 0.1 1.21-0.25 3.64-5.98 4.18-12.22 1.63-18.74-0.4-1.48-1.16-1.73-2.28-0.74-7-13.76-26.6-12.47-30.94 2.71-1.46 9.15-2.83 18.31-4.11 27.48zM425.9 133.09c-2.09-0.11-6.45 5.66-8.36 6.95-1.07 1.1-1.9 2.33-2.51 3.7a89.835 89.835 0 0 0-14.58 25.21c-1.81 4.21-14.03 9.7-17.54 14.46-3.86 4.18-7.44 8.6-10.73 13.24-1.43 0.73-7.31-0.64-9.13-0.79 0.79-1.77 3.75-0.15 4.63-2.25a25.44 25.44 0 0 0-5.44-1.24c-10.41-1.17-20.61-0.16-30.59 3.05-0.74 0.66-1.4 1.38-1.99 2.18-2.81-0.24-7.67 0.61-6.18 4.59-7.48 3.47-12.95 8.32-19.25 13.42-21.45-1.51-36.22-1.31-54.71 11.39-16.62 12.61-26.22 28.46-28.94 49.28-0.42 4.6-9.05 6.77-12.07 9.68-16.2 12.19-25.23 27-28.27 47.14-0.51-0.13-0.9 0.03-1.19 0.47-2.5 4.19-3.87 9.01-3.01 13.92 0.23 1.81 0.72 3.53 1.49 5.16 0.37-0.13 0.74-0.27 1.11-0.41 0.17 1.66 0.36 3.35 0.58 5.07 0.33 0.61 0.84 0.93 1.54 0.93 0.7 2.93 1.23 5.85 1.61 8.78-7.33 4.51-13.59 10.2-18.76 17.06-11.93 19.32-8.31 45.73 9.92 59.86 5.74 5.83 12.93 5.38 13.25 14.97-0.35 0.14-0.58 0.4-0.68 0.77-0.32 4.94-1.24 9.9-0.07 14.81 2.21 6.4 2.33 11.31 2.35 17.96 1.07 4.39 2.28 8.74 3.61 13.06 0.01 7.93 0.63 14.25 2.75 21.94-0.29 7.46 1.26 12.98 3.15 20.1 0.16 7.99 1.05 14.25 3.14 22.01 0.07 4.15 0.37 8.28 0.91 12.39 0.81 3.21 1.72 6.36 2.73 9.47 0.03-1.02 0.45-1.82 1.25-2.4 1.27 9.34 2.63 18.66 4.1 27.97-0.71 0-1.09 0.35-1.16 1.05-1.29 5.23 1.3 10.43 2.04 15.56 0.3 4.06 0.73 8.11 1.28 12.14 0.53 1.24 0.74 3.86 2.66 3.43 1.32 9.29 2.73 18.57 4.2 27.83-0.5-0.14-0.84 0.03-1.03 0.52-2.02 8.8 1.38 16.76 3.22 25.22 0.41 1.64-0.74 1.2-0.85 2.5 1.41 1.22 0.57 2.73 0.91 4.33 2.48 10.22 2.94 20.65 5.58 30.84 0.17 10.11 1.57 17.31 4.44 26.89 0.37 0.24 0.77 0.31 1.2 0.21 0.59 5.17 1.33 10.31 2.2 15.43-1.42 0.68-0.69 2.38-0.72 3.58-0.56 1.6-0.82 3.25-0.8 4.96 0.25 0.79 0.73 1.42 1.46 1.89 0.19 1.25 0.17 2.5-0.06 3.76 1.19 1.23 1.43 2.64 0.73 4.23 0.39 1.05 0.83 2.1 1.32 3.12 0.06 1.53-0.71 2.57 1.62 2.58 3.29 16.55 1.91 35.23 13.6 48.81-0.49 0.29-0.49 0.64-0.01 1.06 2.02 1.86 7.58 8.69 9.98 9.07 13.68 10.13 28.49 16.18 44.49 21.64-0.02 0.91 0.16 1.75 0.54 2.5 5.3 3.01 10.98 4.94 17.02 5.8 1.6-0.69 6.53 2.61 8.69 2.7 1.37 0.35 7.19 0.03 7.49-1.52 4.91 1.17 9.84 2.18 14.82 3.03 1.2 5.54 12.22 4.65 16.36 5.27 17.97 5.11 37.75 3.74 56.29 4.49 0.7-0.01 1.21-0.33 1.51-0.96 37.81 1.72 76.45 1.27 114.05-3.31-0.05 0.83 0.33 1.35 1.13 1.57 6.13 2.18 12.01-0.97 17.98-2.02 5.11-1.03 11.1 0.27 15.84-1.96 0.75-0.71 1.58-1.31 2.47-1.78 0.4 0.24 0.75 0.55 1.04 0.92 1.3-0.7 2.66-1.25 4.1-1.67 3.69 2.3 8.21 0.12 10.99-2.66 0.22-0.43 0.25-0.89 0.09-1.35 26.27-6.28 55.33-14.64 77.3-30.87 2.09-0.09 8.93-6.56 8.86-8.71a54.107 54.107 0 0 0 9.63-18.58c1.14 0.2 1.74-0.3 1.77-1.49 0.55-0.54 1.06-1.11 1.53-1.71 0.03-1.88-1.39-2.98 0.76-4.11 0.04-1.73 0.41-3.38 1.12-4.96 0.02-1.24 0.02-2.48 0.02-3.72-2.66-4.88 1.72-11.41 2.96-16.29-0.06-4.62-0.58-14.46 1.52-18.29-0.21-3.42 0.35-2.22 1.72-4.47 0.11-1.65-0.84-9.26-1.51-10.6 5.35-36.52 10.65-73.05 15.91-109.59 1.82 0.14 3.79-7.19 4.06-8.85 0.31-7.03 0.88-14.04 1.71-21.03 0.19-0.92-0.16-1.4-1.05-1.43 7.92-53.09 15.8-106.18 23.62-159.28 1.66 0.76 1.55-2.43 2.22-3.27 0.24-1.76-0.68-3.7 1.47-4.25 1.69-4.49 2.07-9.92 2.2-14.51 27.74-14.1 36.5-49.23 15.13-72.86-3.8-3.78-7.73-7.4-11.79-10.86 0.8-3.99 1.68-7.97 2.64-11.94 0.29-1.91 0.56-3.83 0.79-5.75 0.68 0.04 1.11-0.26 1.29-0.9 0.26-4.37 0.57-8.74 0.94-13.1 0.27-0.98 0.71-1.87 1.31-2.67-0.34-3.28-0.78-6.54-1.35-9.8-0.46-3.55-1.39-2.09-3.83-1.63-8.66-30.39-26.39-46.13-56.34-54.17-3.23-5.14-6.69-10.14-10.37-15.01-0.14-2.48-7.26-8.18-9.1-10.19-0.52-0.45-1.13-0.7-1.82-0.75-10.38-8.78-21.21-12.42-33.99-16.18-0.32-3.75-19.55-4.72-23.09-5.85-2.8-10.31-7.47-19.69-14-28.14-0.29-2.26-6.48-7.11-8.08-9.14-0.5-0.44-1.08-0.7-1.75-0.77a70.546 70.546 0 0 0-14.61-9.49c-0.95-4.41-5.93-6.59-10.09-6.12-0.63-0.38-1.11-0.91-1.45-1.58-4.48-1.54-7.44-0.6-11.9 0.35-20.03-36.09-45.64-53.82-88.34-50.78-17.56 1.96-33.17 8.55-46.85 19.74z m337.25 91c-0.49 0.54-1.05 1-1.68 1.38 0.8 0.7 1.7 1.22 2.71 1.54 0.33 0.75 0.86 1.28 1.58 1.6 2.55 0.06 5.09 0.1 7.64 0.11 2.07 0.21 1.67-1.12 2.44-2.45 0.87-0.47 2.66-0.34 1.21-1.64 1.06-0.41 2.07-0.93 3.02-1.56 0.94-0.09 1.73-0.47 2.38-1.15 5.78-5.88 11.61-11.69 17.52-17.43 0.41-0.39 0.69-0.86 0.83-1.41 6.75-6.83 13.51-13.65 20.28-20.45 11.39-16.65-9.81-34.71-24.64-21.69a3796.358 3796.358 0 0 0-37.17 36.83c-3.06 2.84-4.66 6.34-4.79 10.51-0.48 7.11 2.41 12.38 8.67 15.81z m54.02 30.13c-11.32 0.91-22.3 0.69-25.54 13.97-1.76 11.78 6.39 20.88 18.37 19.84-0.14 0.49 0.02 0.81 0.5 0.97 4.33 0.27 8.66 0.57 13 0.88 5.41 0.51 10.59-0.34 15.54-2.55 0.85-0.56 1.17-1.35 0.95-2.36 4.4-0.36 8.79-0.82 13.17-1.38 18.24-3.97 18.29-27.37 0.59-32.31 0.22-0.48 0.13-0.89-0.27-1.23-14.95-1.18-21.62-1.32-36.06 3.03-0.28 0.34-0.36 0.72-0.25 1.14z" fill="#FEFEFE" p-id="12128"></path><path d="M585.02 486.08c0.69 0 1.37 0.03 2.05 0.1-0.66 14.78-1.41 29.55-2.24 44.32-6.4 106.5-12.7 213.01-18.92 319.52-0.74-0.2-1.16-0.7-1.23-1.47 0.03-2.43-0.04-4.84-0.22-7.25-0.1 0.68-0.26 1.36-0.47 2.01-0.57 0.63-0.97 1.35-1.23 2.14 0.12 6.02 0.31 12.04 0.55 18.05-0.38 1.04-0.82 2.05-1.32 3.04 0 1 0 1.99-0.01 2.99-0.37 1.51-0.66 1.51-0.87-0.03 0.04-2.66 0.09-5.33 0.17-7.99a6.944 6.944 0 0 0-1.93-3.01c1.75-0.64 2.42-1.9 2.02-3.78 2.37-5.3-0.81-16.35 1.91-22.28 0.03-1.98-0.02-3.95-0.14-5.93 0.61-2.01 1.81-3.77 1.13-6.01-0.44-0.9-0.77-1.83-0.98-2.78 2.58-3.58-0.69-8.01 1.94-12.17 0.04-6.01 0.05-12.03 0.02-18.05 2.88-7.01-0.86-16.78 2.03-22.99 0.49-4.92-1.17-12.69 1.04-16.97-0.11-1.75-0.07-3.47 0.14-5.19 0.16 1.5 0.48 2.95 0.95 4.35 0.29-10.07 0.84-20.14 1.64-30.19 1.3-4.31 0.18-8.56 0.82-12.99 1.93-7.71-0.26-16.61 1.86-23.98-0.19-15.69 1.92-31.44 2.26-47.14-1.03-7.13-1.55-19.24 0.26-25.91 0-4.92 0.02-9.83 0.07-14.75 1.22-2.03 0.93-2.85 1-5.1 2.03-3.94 0.52-17.95 0.97-23.1 1.97-5.41 0.71-11.29 0.98-17.01 0.21-1.05 0.52-2.07 0.93-3.07-0.05-1.07 0.05-2.11 0.31-3.12 0.2 1.37 0.31 2.77 0.32 4.18 0.06 0.48 0.28 0.86 0.64 1.16 1.07-15.36 1.92-30.75 2.53-46.19 1.37-4.59 0.49-8.74 1.02-13.41z" fill="#E34A42" p-id="12129"></path><path d="M730.64 150.1c0.88-0.09 1.4 0.3 1.56 1.17 2.35 7.92-1.39 12.88-3.56 19.98-0.31 0.37-0.69 0.47-1.14 0.28 0.98-7.15 2.03-14.3 3.14-21.43z m-146.11 21.38a73.915 73.915 0 0 0-21.06-6.27c-0.86-0.23-1.65-0.59-2.38-1.08 4.46-0.95 7.42-1.89 11.9-0.35 0.34 0.67 0.82 1.2 1.45 1.58 4.16-0.47 9.14 1.71 10.09 6.12z m-221.48 24.38c-13.7-1.27-27.08 0.37-39.57 6.33-1.49-3.98 3.37-4.83 6.18-4.59 0.59-0.8 1.25-1.52 1.99-2.18 9.98-3.21 20.18-4.22 30.59-3.05 1.88 0.22 3.69 0.63 5.44 1.24-0.88 2.1-3.84 0.48-4.63 2.25z m259.92 23.16c3.54 1.13 22.77 2.1 23.09 5.85-7.14-0.42-14.29-0.74-21.43-0.98-1.08-0.58-1.18-3.72-1.66-4.87z m230.78 32.26c-9.96-0.36-25.96 2.41-36.58 2.94-0.11-0.42-0.03-0.8 0.25-1.14 14.44-4.35 21.11-4.21 36.06-3.03 0.4 0.34 0.49 0.75 0.27 1.23z m-13.76 33.69c0.22 1.01-0.1 1.8-0.95 2.36-4.95 2.21-10.13 3.06-15.54 2.55-4.34-0.31-8.67-0.61-13-0.88-0.48-0.16-0.64-0.48-0.5-0.97 9.99-1.12 19.98-2.14 29.99-3.06zM180.24 333.1c-0.99 8.4-0.82 16.78 0.52 25.14-0.7 0-1.21-0.32-1.54-0.93-0.22-1.72-0.41-3.41-0.58-5.07-0.37 0.14-0.74 0.28-1.11 0.41-0.77-1.63-1.26-3.35-1.49-5.16-0.86-4.91 0.51-9.73 3.01-13.92 0.29-0.44 0.68-0.6 1.19-0.47zM581 431.78l0.12 1.29c-1.4-0.12-1.79 1.19-2.82 1.78a7.77 7.77 0 0 1-3.86-0.1c-0.61 0.41-1.25 0.76-1.93 1.04-9.65 0.42-19.31 0.74-28.98 0.94-9.68 1.03-19.36 2.09-29.03 3.19-33.32-0.07-66.64-0.08-99.96-0.05-15.11-0.69-29.89-3.31-44.84-5.18-0.41-0.32-0.57-0.73-0.48-1.25 7.93 0.53 15.86 1.03 23.8 1.51 0.15 0.5 0.04 0.95-0.32 1.33 1.19 0.9 6.19 0.2 7.84 0.38 0.91 0.6 1.9 0.93 2.97 1.02 2.01 0.12 4.02 0 6-0.37 1.28 0.65 2.62 1.13 4.01 1.42 3.6-0.02 7.2-0.06 10.8-0.11 1.05-0.46 2.11-0.9 3.18-1.31 1.34 0.13 2.67 0.31 4 0.55 3.99 0.01 7.97 0.02 11.95 0 0.47-0.2 0.66-0.56 0.56-1.06 45.5 0.43 91.71-0.33 136.99-5.02z m-394.22 27.13c6.34 43.37 12.72 86.74 19.14 130.11-0.8 0.58-1.22 1.38-1.25 2.4-1.01-3.11-1.92-6.26-2.73-9.47-0.54-4.11-0.84-8.24-0.91-12.39-2.09-7.76-2.98-14.02-3.14-22.01-1.89-7.12-3.44-12.64-3.15-20.1-2.12-7.69-2.74-14.01-2.75-21.94-1.33-4.32-2.54-8.67-3.61-13.06-0.02-6.65-0.14-11.56-2.35-17.96-1.17-4.91-0.25-9.87 0.07-14.81 0.1-0.37 0.33-0.63 0.68-0.77z m313.48 408.8c-0.03 3.43-0.12 6.86-0.27 10.29-0.63 0.26-1.29 0.44-1.96 0.55-18.51 0.69-37.02 0.78-55.53 0.28-2.53-0.06-5.04-0.3-7.54-0.71 2.25-4.43 28.29-1 33.54-0.49 5.28-1.61 26.64-1.22 29.4-2.53 0.02 0.46 0.25 0.74 0.69 0.85 2.02-1.1-0.65-7.11 1.67-8.24z m96.47 28.98c0.16 0.46 0.13 0.92-0.09 1.35-2.78 2.78-7.3 4.96-10.99 2.66-1.44 0.42-2.8 0.97-4.1 1.67-0.29-0.37-0.64-0.68-1.04-0.92-0.89 0.47-1.72 1.07-2.47 1.78-4.74 2.23-10.73 0.93-15.84 1.96-5.97 1.05-11.85 4.2-17.98 2.02-0.8-0.22-1.18-0.74-1.13-1.57 18.02-2.15 35.9-5.13 53.64-8.95z m-241.85 3.46c24.54 4.41 49.26 7.35 74.16 8.8-0.3 0.63-0.81 0.95-1.51 0.96-18.54-0.75-38.32 0.62-56.29-4.49-4.14-0.62-15.16 0.27-16.36-5.27z" fill="#EBEBEB" p-id="12130"></path><path d="M731.85 141.86c0.48-5.74 2.78-14.3 0.56-19.73 1.12-0.99 1.88-0.74 2.28 0.74 2.55 6.52 2.01 12.76-1.63 18.74-0.35 0.35-0.75 0.44-1.21 0.25zM324.01 428.83c8.39 1.01 16.79 1.92 25.21 2.75-0.28 0.79-0.83 1.17-1.66 1.15-5.79 0.13-11.57 0.03-17.35-0.31-2.02-0.35-3.99-0.86-5.93-1.55a4.68 4.68 0 0 1-0.27-2.04z m287-0.09c-0.09 0.98-0.63 1.56-1.63 1.75 0.23 0.47 0.21 0.9-0.06 1.29-9.38 1.58-18.76 0.43-28.2 1.29l-0.12-1.29c10.03-0.77 20.03-1.79 30.01-3.04z m141.54 21.94c-0.13 4.59-0.51 10.02-2.2 14.51-2.15 0.55-1.23 2.49-1.47 4.25-0.67 0.84-0.56 4.03-2.22 3.27 0.79-6.03 1.64-12.05 2.55-18.06 0.44-1.89 1.55-3.22 3.34-3.97zM293.2 479.5c17.59 2.47 35.2 4.75 52.84 6.84 0.1 3.21 0.3 6.41 0.62 9.59-0.61 0.1-1.05-0.12-1.32-0.65-0.28-1.22 0.98-8.5-1.6-7.5-1.63 2.18-0.33 4.36-2.91 1.37-8.68-1.29-17.12-2.87-25.65-5.08-7.11-1.04-14.84 0.56-21.58-2.4a2.76 2.76 0 0 1-0.4-2.17z m320.76 3.58c0.68 0.76 1.54 1.19 2.58 1.3-4.29 0.85-8.57 1.82-12.84 2.91-2.55 0.98-14.62 1.23-15.72-1.37 8.66-1 17.32-1.95 25.98-2.84z m109.08 148.91c0.89 0.03 1.24 0.51 1.05 1.43-0.83 6.99-1.4 14-1.71 21.03-0.27 1.66-2.24 8.99-4.06 8.85 1.53-10.44 3.1-20.88 4.72-31.31z" fill="#E8E7E6" p-id="12131"></path><path d="M759.32 349.27c0.82-9.45 0.27-18.82-1.64-28.1 2.44-0.46 3.37-1.92 3.83 1.63 0.57 3.26 1.01 6.52 1.35 9.8-0.6 0.8-1.04 1.69-1.31 2.67-0.37 4.36-0.68 8.73-0.94 13.1-0.18 0.64-0.61 0.94-1.29 0.9zM426.01 460.38c-17.02-0.48-34.03-1.3-51.02-2.46-0.09-0.44 0.08-0.73 0.51-0.88 5.9-0.68 11.83-1.16 17.77-1.46 6.06 0.26 12.12 0.46 18.18 0.58 5.77 0.4 11.5 0.84 17.22 1.3-1.52 0.32-3 0.72-4.46 1.19 0.85 0.65 1.89 0.33 1.8 1.73zM306.32 887.64c11.14 3.56 22.39 6.72 33.74 9.48-0.3 1.55-6.12 1.87-7.49 1.52-2.16-0.09-7.09-3.39-8.69-2.7a47.825 47.825 0 0 1-17.02-5.8c-0.38-0.75-0.56-1.59-0.54-2.5z" fill="#EFEFEE" p-id="12132"></path><path d="M210.02 616.99c1.67 10.72 3.28 21.45 4.82 32.18-1.92 0.43-2.13-2.19-2.66-3.43-0.55-4.03-0.98-8.08-1.28-12.14-0.74-5.13-3.33-10.33-2.04-15.56 0.07-0.7 0.45-1.05 1.16-1.05z m9.02 60.01c4.42 30.19 8.91 60.36 13.47 90.51-0.43 0.1-0.83 0.03-1.2-0.21-2.87-9.58-4.27-16.78-4.44-26.89-2.64-10.19-3.1-20.62-5.58-30.84-0.34-1.6 0.5-3.11-0.91-4.33 0.11-1.3 1.26-0.86 0.85-2.5-1.84-8.46-5.24-16.42-3.22-25.22 0.19-0.49 0.53-0.66 1.03-0.52z" fill="#E5E5E5" p-id="12133"></path><path d="M425.26 492.09c4.76 0.1 9.52 0.09 14.28-0.03 0.82-0.16 1.24 0.14 1.25 0.92-3.08 0.23-6.16 0.25-9.25 0.06-2.6 0.29-2.47 3.5-2.62 5.44 0.02 10.01 0.04 20.03 0.05 30.04 0.07 0.77-0.08 1.49-0.45 2.15-0.3-11.73-0.42-23.47-0.37-35.24 0.07-0.52-0.08-0.95-0.44-1.29-0.68 0.61-0.97 1.38-0.89 2.31-0.16 9.69-0.07 19.37 0.28 29.05-0.27 1.36 0.12 4.68-0.99 5.6-0.18-11.02-0.4-22.04-0.69-33.06-0.08-1.99-0.13-3.97-0.16-5.95z" fill="#F9E9E9" p-id="12134"></path><path d="M423.96 877.77c-6.67-0.42-13.33-0.95-19.98-1.59 0.15-0.81 0.65-1.23 1.5-1.26 6.11-1.22 12.48-1.94 18.4 0.51 1.5 0.66 0.65 1.28 0.08 2.34z" fill="#D84943" p-id="12135"></path><path d="M697.36 152.32c-0.85 6.57-1.79 13.12-2.84 19.66-0.51 0-0.89-0.22-1.14-0.68-1.28-3.86-1.27-7.72 0.03-11.59 1.03-2.34 1.98-4.72 2.82-7.13 0.32-0.31 0.7-0.4 1.13-0.26z" fill="#E8E8E8" p-id="12136"></path><path d="M763.15 224.09c4.55 2.03 9.19 2.21 13.9 0.54 1.45 1.3-0.34 1.17-1.21 1.64-0.77 1.33-0.37 2.66-2.44 2.45-2.55-0.01-5.09-0.05-7.64-0.11-0.72-0.32-1.25-0.85-1.58-1.6a7.541 7.541 0 0 1-2.71-1.54c0.63-0.38 1.19-0.84 1.68-1.38z" fill="#E2E2E2" p-id="12137"></path><path d="M680.05 241.05c0.69 0.05 1.3 0.3 1.82 0.75 1.84 2.01 8.96 7.71 9.1 10.19-3.64-3.65-7.28-7.3-10.92-10.94zM251.86 855.87c3.09 3.16 6.27 6.24 9.54 9.24 0.24 0.25 0.38 0.55 0.43 0.89-2.4-0.38-7.96-7.21-9.98-9.07-0.48-0.42-0.48-0.77 0.01-1.06z" fill="#969696" p-id="12138"></path><path d="M800.8 203.08c-0.14 0.55-0.42 1.02-0.83 1.41-5.91 5.74-11.74 11.55-17.52 17.43-0.65 0.68-1.44 1.06-2.38 1.15 5.73-6.11 11.57-12.11 17.5-18.01a6.47 6.47 0 0 1 3.23-1.98z" fill="#9F9F9F" p-id="12139"></path><path d="M489.98 460.86c-0.34 1.02-2.68 0.7-3.48 0.82-3.33-0.07-6.66-0.06-9.99 0.01-0.62 0.06-1.14-0.13-1.54-0.58 0.34-0.51 0.83-0.74 1.46-0.67 4.32 0.06 8.64 0.03 12.96-0.07 0.32 0.04 0.51 0.2 0.59 0.49z" fill="#949494" p-id="12140"></path><path d="M422.98 490.86c0.73 0.04 1.44 0.19 2.13 0.44 0.05 0.26 0.1 0.52 0.15 0.79 0.03 1.98 0.08 3.96 0.16 5.95a54.82 54.82 0 0 1-2.15 7.74c-0.94-1.17-0.46-12.45-0.29-14.92z" fill="#DC3731" p-id="12141"></path><path d="M425.9 133.09c-3.2 3.18-6.34 6.45-9.42 9.8-0.39 0.43-0.88 0.71-1.45 0.85 0.61-1.37 1.44-2.6 2.51-3.7 1.91-1.29 6.27-7.06 8.36-6.95z" fill="#9D9D9D" p-id="12142"></path><path d="M599.14 180.97c0.67 0.07 1.25 0.33 1.75 0.77 1.6 2.03 7.79 6.88 8.08 9.14-0.34-0.06-0.63-0.21-0.89-0.44-3.01-3.15-5.99-6.3-8.94-9.47z" fill="#A2A2A2" p-id="12143"></path><path d="M368.95 858.97c0.24 4.09 0.55 8.17 0.95 12.25-0.98 0.05-1.95-0.02-2.91-0.19 0.36-0.56 0.8-1.07 1.32-1.53 0.04-3.31 0-6.62-0.13-9.93 0.08-0.43 0.34-0.63 0.77-0.6z" fill="#EDC9C2" p-id="12144"></path><path d="M682.89 857.11c0.07 2.15-6.77 8.62-8.86 8.71a607.3 607.3 0 0 1 8.86-8.71z" fill="#AAA9AA" p-id="12145"></path><path d="M732.41 122.13c2.22 5.43-0.08 13.99-0.56 19.73-0.28 2.76-0.68 5.51-1.21 8.24a1188.9 1188.9 0 0 0-3.14 21.43c-2.26 27.46-35.55 22.12-32.98 0.45 1.05-6.54 1.99-13.09 2.84-19.66 1.28-9.17 2.65-18.33 4.11-27.48 4.34-15.18 23.94-16.47 30.94-2.71z m-171.32 42c0.73 0.49 1.52 0.85 2.38 1.08a73.915 73.915 0 0 1 21.06 6.27 70.546 70.546 0 0 1 14.61 9.49c2.95 3.17 5.93 6.32 8.94 9.47 0.26 0.23 0.55 0.38 0.89 0.44 6.53 8.45 11.2 17.83 14 28.14 0.48 1.15 0.58 4.29 1.66 4.87 7.14 0.24 14.29 0.56 21.43 0.98 12.78 3.76 23.61 7.4 33.99 16.18 3.64 3.64 7.28 7.29 10.92 10.94 3.68 4.87 7.14 9.87 10.37 15.01 29.95 8.04 47.68 23.78 56.34 54.17a97.066 97.066 0 0 1 1.64 28.1c-0.23 1.92-0.5 3.84-0.79 5.75a310.5 310.5 0 0 0-2.64 11.94c4.06 3.46 7.99 7.08 11.79 10.86 21.37 23.63 12.61 58.76-15.13 72.86-1.79 0.75-2.9 2.08-3.34 3.97-0.91 6.01-1.76 12.03-2.55 18.06-7.82 53.1-15.7 106.19-23.62 159.28-1.62 10.43-3.19 20.87-4.72 31.31-5.26 36.54-10.56 73.07-15.91 109.59-3.25 21.89-6.55 43.77-9.89 65.64-2 6.82-5.21 13.01-9.63 18.58a607.3 607.3 0 0 0-8.86 8.71c-21.97 16.23-51.03 24.59-77.3 30.87-17.74 3.82-35.62 6.8-53.64 8.95-37.6 4.58-76.24 5.03-114.05 3.31-24.9-1.45-49.62-4.39-74.16-8.8-4.98-0.85-9.91-1.86-14.82-3.03-11.35-2.76-22.6-5.92-33.74-9.48-16-5.46-30.81-11.51-44.49-21.64-0.05-0.34-0.19-0.64-0.43-0.89-3.27-3-6.45-6.08-9.54-9.24-11.69-13.58-10.31-32.26-13.6-48.81a456.43 456.43 0 0 0-3.55-24.12c-0.87-5.12-1.61-10.26-2.2-15.43-4.56-30.15-9.05-60.32-13.47-90.51-1.47-9.26-2.88-18.54-4.2-27.83-1.54-10.73-3.15-21.46-4.82-32.18-1.47-9.31-2.83-18.63-4.1-27.97-6.42-43.37-12.8-86.74-19.14-130.11-0.32-9.59-7.51-9.14-13.25-14.97-18.23-14.13-21.85-40.54-9.92-59.86 5.17-6.86 11.43-12.55 18.76-17.06-0.38-2.93-0.91-5.85-1.61-8.78a90.88 90.88 0 0 1-0.52-25.14c3.04-20.14 12.07-34.95 28.27-47.14 3.02-2.91 11.65-5.08 12.07-9.68 2.72-20.82 12.32-36.67 28.94-49.28 18.49-12.7 33.26-12.9 54.71-11.39 6.3-5.1 11.77-9.95 19.25-13.42 12.49-5.96 25.87-7.6 39.57-6.33 1.82 0.15 7.7 1.52 9.13 0.79 3.29-4.64 6.87-9.06 10.73-13.24 3.51-4.76 15.73-10.25 17.54-14.46 3.49-9.2 8.35-17.6 14.58-25.21 0.57-0.14 1.06-0.42 1.45-0.85 3.08-3.35 6.22-6.62 9.42-9.8 13.68-11.19 29.29-17.78 46.85-19.74 42.7-3.04 68.31 14.69 88.34 50.78z m-88.33-19.65c-7.09 1.07-13.74 3.39-19.97 6.95-15.88 10.04-22.52 21.45-27.99 38.97-1.72 2.73-4.04 4.8-6.95 6.22-13.78 5.52-21.88 15.61-24.3 30.26-3.28 10.41 5.84 38.83 17.18 40.64 16.14 0.5 31.16 4.87 45.04 13.13 5.9 3.78 8.61 8.31 16.4 6.78 16.14-0.41 30.75 4.11 43.83 13.54 3.07 2.77 6.26 5.4 9.56 7.87 1.21 0.2 7.35-5.65 8.78-6.54 3.09-3.38 16.9-6.7 17.38-10.94 5.29-27.61 18.68-44.45 42.4-58.67 0.38-0.32 0.58-0.74 0.6-1.25-0.95-15.52-15.51-31.25-30.48-35.15-9.23-3.52-22.39 1.73-27.08-9.37-1.4-4.9-3.27-9.61-5.62-14.12-13.74-21.75-33.11-30.93-58.78-28.32z m328.04 58.6a6.47 6.47 0 0 0-3.23 1.98c-5.93 5.9-11.77 11.9-17.5 18.01-0.95 0.63-1.96 1.15-3.02 1.56-4.71 1.67-9.35 1.49-13.9-0.54-6.26-3.43-9.15-8.7-8.67-15.81 0.13-4.17 1.73-7.67 4.79-10.51 12.3-12.36 24.7-24.64 37.17-36.83 14.83-13.02 36.03 5.04 24.64 21.69-6.77 6.8-13.53 13.62-20.28 20.45z m-454.03 23.39c-13.56 2.94-20.01 9.02-28.91 18.82-5.17 4.58-12.98 2.46-18.82 0.6-9.04-1.92-17.79-1.02-26.25 2.68-12.95 7.04-20.56 17.86-22.83 32.45-0.97 8.3 1.3 15.45-6.18 21.38-0.84 0.67-1.77 1.2-2.77 1.58-19.66 5.38-32.48 21.49-31.39 42.16 2 32.87 26.56 35.67 52.9 41.47 0.44 0.05 0.75-0.12 0.93-0.53 1.21-8.71 3.76-17 7.66-24.88 1.13-2.17 2.41-4.25 3.86-6.23 1.69-2.3 3.44-4.56 5.25-6.77 3.7-3.88 7.69-7.42 11.98-10.64 10.13-6.84 20.78-9.8 32.51-12.47 0.64-0.64 1.15-1.38 1.54-2.21 8.21-22.08 26.43-40.13 48.19-48.94 0.31-0.39 0.34-0.82 0.11-1.27-7.16-12.24-11.81-26.18-11.09-40.5-0.28-1.37 0.94-5.82-0.94-6.18-4.3-1.53-11.18-0.88-15.75-0.52z m506.98 24.81c17.7 4.94 17.65 28.34-0.59 32.31-4.38 0.56-8.77 1.02-13.17 1.38-10.01 0.92-20 1.94-29.99 3.06-11.98 1.04-20.13-8.06-18.37-19.84 3.24-13.28 14.22-13.06 25.54-13.97 10.62-0.53 26.62-3.3 36.58-2.94z m-272.88 43.69c-1.72 5.61-1.18 13.93-3.34 18.87-2.2 3.57-5.35 5.75-9.46 6.52-20.55 5.22-32.07 18.38-34.54 39.48-1.1 17.6 9.49 35.17 25.26 42.76 13.95 0.01 29.28-2.03 43.27-3.34 25.77-3.06 51.88-6.62 77.09-12.86 27.43-5.95 45.36-9.98 50.08-41.59 2.13-21.78-9.93-42.61-32.07-47.38-15.11-1.43-17.29-2.35-22.79-16.36-21.33-41.92-82.2-31.65-93.5 13.9z m-192 6.77c-24.45 11.46-32.08 22.66-39.82 47.85a18.634 18.634 0 0 1-6.21 5.93c-5.9 2.01-13.54 0.15-19.96 2.04-15.76 4.28-25.55 14.37-29.35 30.27 0.06 1.31-1.1 5.2 0.17 5.95 5.4 1.04 10.83 1.86 16.3 2.46 4.67 0.58 9.33 1.23 13.98 1.96 11.34 1.31 22.7 2.52 34.06 3.63 2.99 0.17 5.98 0.36 8.97 0.55 3.95 0.35 7.9 0.69 11.85 1.02 8.05 0.62 16.1 1.14 24.17 1.56 27.01 1.38 54.03 1.89 81.08 1.53 10.32-0.17 20.64-0.48 30.95-0.95 3.26-0.41 0.53-3.01-0.19-4.46a78.562 78.562 0 0 1-9.67-24.15c-1.6-11.57-1.7-22.46 1.09-33.86 4.59-11.9-8.72-18.26-17.35-22.76-8.19-2.82-16.5-3.24-24.94-1.24-9.06 2.07-16.46-9.04-23.97-12.67a75.879 75.879 0 0 0-15.92-6.67c-12.02-2.69-23.61-2.09-35.24 2.01z m-13.88 156.18c16.99 1.16 34 1.98 51.02 2.46 16.32 0.55 32.64 0.8 48.96 0.73 0.4 0.45 0.92 0.64 1.54 0.58 3.33-0.07 6.66-0.08 9.99-0.01 0.8-0.12 3.14 0.2 3.48-0.82 75.81-1.96 156.89-8.24 229.91-29.59 10.8-4.03 27.29-7.6 29.52-21.09 0.86-4.36-3.4-15.47-9.04-13.12-35.45 19.56-89.34 26.28-129.36 31.68-9.98 1.25-19.98 2.27-30.01 3.04-45.28 4.69-91.49 5.45-136.99 5.02-17.01-0.36-34-0.98-50.99-1.85-7.94-0.48-15.87-0.98-23.8-1.51-6.68-0.51-13.35-1.13-20-1.86-8.42-0.83-16.82-1.74-25.21-2.75l-4.18-0.72a888.589 888.589 0 0 1-50.83-7.92c-23.33-5.19-52.54-10.69-72.88-23.5-5.52-1.72-10.13 8.21-9.21 12.76 1.02 11.97 13.15 15.68 22.65 19.41 52.59 17.41 110.36 24.87 165.43 29.06z m-153.57 32.22l3.75 25.85c15.67 104.29 31.18 208.61 46.53 312.95 3.11 15.39 25.43 22.3 38.09 27.53 0.94 0.49 1.92 0.67 2.96 0.56 16.86 7.06 36.33 10.51 54.24 14 0.96 0.17 1.93 0.24 2.91 0.19 11.18 2.5 22.7 3.72 34.08 4.96 6.65 0.64 13.31 1.17 19.98 1.59 3.35 0.15 6.7 0.21 10.05 0.16 0.32 0.07 0.63 0.13 0.95 0.19 2.5 0.41 5.01 0.65 7.54 0.71 18.51 0.5 37.02 0.41 55.53-0.28 0.67-0.11 1.33-0.29 1.96-0.55 20.66-0.52 44.84-2.69 65-6.95 16.25-1.74 42.73-7.92 57.98-13.97 12.07-3.58 38.59-13.23 41.1-28.38 17.39-120.8 35.07-241.56 53.04-362.27 0.23-1.15 0.15-2.84-1.54-2.48-17.43 4.74-34.96 8.51-52.58 12.34-16.31 2.5-32.65 4.77-49.03 6.79-8.66 0.89-17.32 1.84-25.98 2.84-0.3 0.09-0.61 0.18-0.91 0.26-0.68-0.07-1.36-0.1-2.05-0.1-25.61 2.34-51.26 4.05-76.95 5.13-27.66 0.15-55.31 0.18-82.96 0.09-0.69-0.25-1.4-0.4-2.13-0.44-25.68-0.92-51.33-2.43-76.94-4.52-17.64-2.09-35.25-4.37-52.84-6.84-6.18-0.82-13.18-2.44-19.34-2.51-1.24-0.65-2.55-1.08-3.93-1.29-16.7-3.15-33.22-7.04-49.57-11.68-0.88-0.28-1.6-0.07-2.15 0.63 0.74 8.53 1.81 17.03 3.21 25.49z" fill="#343333" p-id="12146"></path><path d="M514.87 401.08c0.72 1.45 3.45 4.05 0.19 4.46-10.31 0.47-20.63 0.78-30.95 0.95 0.08-0.84 0.54-1.33 1.36-1.49 4.36 0.07 8.72 0.03 13.08-0.1 1.21 0.11 1.49-0.34 0.83-1.36 1.68-0.21 3.39-0.31 5.12-0.3 0.68-0.15 1.23-0.5 1.64-1.06 1.58 0.65 8.34-1.24 8.73-1.1z" fill="#E7D7AE" p-id="12147"></path><path d="M506.14 402.18c-0.41 0.56-0.96 0.91-1.64 1.06-1.73-0.01-3.44 0.09-5.12 0.3 0.66 1.02 0.38 1.47-0.83 1.36-4.36 0.13-8.72 0.17-13.08 0.1-0.82 0.16-1.28 0.65-1.36 1.49-27.05 0.36-54.07-0.15-81.08-1.53-0.18-0.33-0.44-0.59-0.77-0.77a42.15 42.15 0 0 1-3.05-0.52c1.34-0.38 2.72-0.66 4.13-0.82 0.32-0.15 0.55-0.38 0.69-0.7 15.71-2.21 33.88-0.01 49.81 0.46 16.97 0.26 35.56-2.66 52.3-0.43z" fill="#F1E0B6" p-id="12148"></path><path d="M404.03 402.15c-0.14 0.32-0.37 0.55-0.69 0.7-1.41 0.16-2.79 0.44-4.13 0.82 1 0.21 2.01 0.38 3.05 0.52 0.33 0.18 0.59 0.44 0.77 0.77-8.07-0.42-16.12-0.94-24.17-1.56 1.88-4.19 20.77-2.17 25.17-1.25z" fill="#EEDDA8" p-id="12149"></path><path d="M293.53 387.83c5.25 2.18 10.6 4.06 16.05 5.62-0.48 0.35-0.92 0.74-1.31 1.17 0.87 0.7 1.9 0.12 1.73 1.62-5.47-0.6-10.9-1.42-16.3-2.46-1.27-0.75-0.11-4.64-0.17-5.95z" fill="#EFCC80" p-id="12150"></path><path d="M660.99 383.96c6.04 0.98 12.09 1.8 18.16 2.44-25.21 6.24-51.32 9.8-77.09 12.86 0.01-0.23 0.02-0.46 0.04-0.69 1.82-1.42 2.42-0.19 0.11-2.27 16.9-2.23 33.8-4.72 50.7-7.49 0.97 0.03 1.88 0.32 2.72 0.86a12.1 12.1 0 0 1 3.42-2.98c1.54-0.43 3.08-0.81 4.61-1.15-0.86-0.61-2.37-0.26-2.67-1.58z" fill="#EEC66F" p-id="12151"></path><path d="M280.22 349.2a163.15 163.15 0 0 0-5.25 6.77c-2.63-0.51-2.08-3-1.66-4.96 0.26 0.45 0.52 0.9 0.79 1.35 1.62 2.19 4.23-5.71 6.12-3.16z" fill="#D9C388" p-id="12152"></path><path d="M506.29 343.07c-2.79 11.4-2.69 22.29-1.09 33.86-0.54 0.28-1.1 0.5-1.68 0.66-5.71-7.18-2.34-20.2-1.54-28.57 0.37-0.76 0.92-0.85 1.65-0.24 0.23-1.82 0.66-3.59 1.29-5.32 0.38-0.4 0.84-0.52 1.37-0.39z" fill="#EDDCB5" p-id="12153"></path><path d="M241.01 303.98c-3.09 13.43-3.25 24.57 3.74 36.76 0.41 0.86 1.09 1.31 2.05 1.35-0.4 0.99-0.51 2-0.33 3.03 5.74 7.44 13.38 13.3 22.9 14 0.43 1.12 1.01 2.14 1.74 3.08a80.771 80.771 0 0 0-7.66 24.88c-0.18 0.41-0.49 0.58-0.93 0.53-26.34-5.8-50.9-8.6-52.9-41.47-1.09-20.67 11.73-36.78 31.39-42.16z" fill="#FCCD6F" p-id="12154"></path><path d="M274.83 330.94c-2.94 6.5-3.45 13.19-1.52 20.07-0.42 1.96-0.97 4.45 1.66 4.96a48.188 48.188 0 0 0-3.86 6.23c-0.73-0.94-1.31-1.96-1.74-3.08-9.52-0.7-17.16-6.56-22.9-14a5.44 5.44 0 0 1 0.33-3.03c0.85-10.06 3.67-19.63 10.75-27.11 1.49-1.54 2.95-3.1 4.39-4.69 5.13-6.14 10.99-11.27 18.83-5.4 10.2 10.7 1.6 18.19-5.94 26.05z" fill="#FBC35D" p-id="12155"></path><path d="M424.11 299.73c0.04 1.95-0.88 3-2.78 3.15-7.86-0.38-19.57 1.29-26.78-1.17-1.9 0.35-3.79 0.36-5.68 0.03 11.63-4.1 23.22-4.7 35.24-2.01z" fill="#F3E2B7" p-id="12156"></path><path d="M580.87 294.97c0.46-0.13 0.86-0.03 1.2 0.31 1.57 5.23 1.61 10.47 0.13 15.73-0.3 0.3-0.67 0.49-1.1 0.57a7.888 7.888 0 0 1-2.11 2.69c-0.59 0.28-1.08 0.14-1.46-0.43 2.16-4.94 1.62-13.26 3.34-18.87z m-91.93 25.34c-0.11 0.3-0.32 0.49-0.63 0.59-8.74 0.7-15.27 2.86-24.01-0.66-0.44-0.3-0.54-0.69-0.3-1.17 8.44-2 16.75-1.58 24.94 1.24z" fill="#EFE0B8" p-id="12157"></path><path d="M249.96 281.02c0.75-0.11 1.48-0.04 2.19 0.21 0.4 1.17 0.95 2.28 1.65 3.33-0.05 0.82-0.43 1.47-1.15 1.94-2.31 10.46 2.2 13.77 9.38 19.83 0.12 1.06-0.04 2.08-0.47 3.06-0.08 0.39 0.05 0.7 0.38 0.9-1.44 1.59-2.9 3.15-4.39 4.69-1.33-1.26-13.76-12.57-13.77-12.58 7.48-5.93 5.21-13.08 6.18-21.38z m42.24 57.54a96.834 96.834 0 0 0-11.98 10.64c-1.89-2.55-4.5 5.35-6.12 3.16-0.27-0.45-0.53-0.9-0.79-1.35-1.93-6.88-1.42-13.57 1.52-20.07 0.14 1.06 0.2 2.09 0.2 3.1 0.69-0.61 1.29-1.3 1.79-2.07 1.77-1.34 2.01-0.93 3.41 0.32 2.23 0.46 11.31 4.19 11.97 6.27z" fill="#FBE3AA" p-id="12158"></path><path d="M299.04 245.89c0.47 1.91-2.82 0.23-3.57 0.33-6.45-0.05-11.38 8.1-18.19 5.25-1.03-0.71-4.15-1.71-4.49-2.9 8.46-3.7 17.21-4.6 26.25-2.68z" fill="#F3DCA6" p-id="12159"></path><path d="M363.46 233.17c-0.46-0.03-0.82 0.15-1.1 0.52-0.14 1.68-0.4 3.31-0.77 4.89-0.47-1.42-0.86-2.87-1.19-4.36-3.45-6.58-10.54-3.95-13.63-7.75 4.57-0.36 11.45-1.01 15.75 0.52 1.88 0.36 0.66 4.81 0.94 6.18z" fill="#ECDFBD" p-id="12160"></path><path d="M417.85 196.62c-2.02 27.03 4.7 43.75 27.49 58.56 0.71 0.61 1.29 0.54 1.73-0.23 6.15 7.88 11.27 11.35 21.86 9.2 1.07 4.11-0.34 7.47-0.8 11.9-0.35 0.15-0.63 0.4-0.84 0.73-0.73 3.73-0.64 1.6-2.18 0.34-3.07-1.24-5.93-0.86-8.58 1.13-0.65 0.66-0.91 1.46-0.76 2.4-13.88-8.26-28.9-12.63-45.04-13.13-11.34-1.81-20.46-30.23-17.18-40.64 2.42-14.65 10.52-24.74 24.3-30.26z" fill="#FCCF75" p-id="12161"></path><path d="M476.24 254.97c-1.17 4.07-3.61 7.13-7.31 9.18-10.59 2.15-15.71-1.32-21.86-9.2-15.96-25.56-4.12-62.79 22.01-76.3 19.54-9.47 30.73 12.43 16.29 22.21-10.37 4.47-15.77 9.83-18.8 21.02-5.96 18.4 12.2 21.32 9.67 33.09z m155.91 115.88c-0.15 11.73-22.18 11.98-29.41 5.26-11.3-12.53-13.73-31.72-8.32-47.31 8.81-26.8 38.69-17.78 29.33 1.57-12.41 16.91-5.99 28.75 8.4 40.48z" fill="#FAC055" p-id="12162"></path><path d="M531.54 172.8c2.35 4.51 4.22 9.22 5.62 14.12-1.17 0.48-2.36 0.79-3.57 0.93-6.27-2.49-7.38-8.6-4.2-14.13 0.55-0.68 1.27-0.98 2.15-0.92z" fill="#F6E5BB" p-id="12163"></path><path d="M281.24 554.98c10.56 100.68 21.06 201.36 31.51 302.05-1.04 0.11-2.02-0.07-2.96-0.56-0.79-5.63-1.13-11.3-1-16.99 0.02-0.51-0.14-0.94-0.48-1.31-0.21 0.91-0.49 1.79-0.84 2.64-1.25-0.2-1.69-2.52-2.02-3.49-0.26 0.12-0.53 0.22-0.81 0.31-1.43-0.75-2.91-1.17-4.45-1.26 0.4-0.89 0.67-1.8 0.82-2.74a10.78 10.78 0 0 1-0.96-5.07c1.62-1.7 2.13-0.74 2.22-3.78 0.67-1.37 2.98-1.61 2.99-3.28-1.12-12.1-4.2-23.48-2.37-36.02 0.11-0.82-0.06-1.56-0.5-2.24-0.46 1.06-0.76 2.18-0.89 3.37-0.32-1.63-0.46-3.29-0.41-4.99-3.76-18.3-2.73-37.74-6.8-56.27-0.59-23.62-5.32-47.35-6.26-70.68-3.83-22.43-3.97-45.04-7.78-67.42-0.88-15.19-3.47-31.76-4.14-46.84-0.06-0.8 0.12-1.52 0.54-2.17 0.51 1.77 0.98 3.57 1.4 5.4-0.21 3.06 0.13 6.06 1.01 8.99-0.07 2.07 0.08 4.09 0.47 6.08 0.48-1.29-0.37-3.54 1.71-3.73z" fill="#E54D45" p-id="12164"></path><path d="M221.42 490.14c2.84 0.45 3.85 3.95 4.23 6.37 0.18 6.33 0.31 12.67 0.39 19-0.12 0.47-0.41 0.63-0.87 0.48l-3.75-25.85z" fill="#D74442" p-id="12165"></path><path d="M358.04 401.83c-11.36-1.11-22.72-2.32-34.06-3.63-0.06-0.74 0.26-1.23 0.96-1.46 9.69-2.43 20.63 2.78 30.42 3.59 1.14 0.12 2.03 0.62 2.68 1.5z" fill="#E7C777" p-id="12166"></path><path d="M342.84 355.52c-2.32 17.58 3.64 31.85 17.41 42.76 1.17 1.2 6.71 2.63 6.76 4.1-2.99-0.19-5.98-0.38-8.97-0.55-0.65-0.88-1.54-1.38-2.68-1.5-9.79-0.81-20.73-6.02-30.42-3.59-0.7 0.23-1.02 0.72-0.96 1.46-4.65-0.73-9.31-1.38-13.98-1.96 0.17-1.5-0.86-0.92-1.73-1.62 0.39-0.43 0.83-0.82 1.31-1.17-5.45-1.56-10.8-3.44-16.05-5.62 3.8-15.9 13.59-25.99 29.35-30.27 6.42-1.89 14.06-0.03 19.96-2.04z" fill="#FCD179" p-id="12167"></path><path d="M534.34 302.3c-1.43 0.89-7.57 6.74-8.78 6.54-3.3-2.47-6.49-5.1-9.56-7.87 0.71-1.73 2.52-0.34 3.61 0.12 3.07-0.58 9.06-0.64 11.77 0.93 1.08-0.39 2.27-1.2 2.96 0.28z" fill="#F0D69A" p-id="12168"></path><path d="M472.76 144.48c0.91 0.78 1.88 1.45 2.93 2.01-2.22 0.21-4.43 0.6-6.61 1.17-2.97 0.47-14.02 5.26-16.29 3.77 6.23-3.56 12.88-5.88 19.97-6.95z" fill="#E6D6A9" p-id="12169"></path><path d="M273.86 476.99c1.27 25.78 5.17 52.19 7.38 77.99-2.08 0.19-1.23 2.44-1.71 3.73-0.39-1.99-0.54-4.01-0.47-6.08-0.88-2.93-1.22-5.93-1.01-8.99-0.42-1.83-0.89-3.63-1.4-5.4-0.42 0.65-0.6 1.37-0.54 2.17 0.67 15.08 3.26 31.65 4.14 46.84 3.81 22.38 3.95 44.99 7.78 67.42 0.94 23.33 5.67 47.06 6.26 70.68 4.07 18.53 3.04 37.97 6.8 56.27-0.05 1.7 0.09 3.36 0.41 4.99 0.13-1.19 0.43-2.31 0.89-3.37 0.44 0.68 0.61 1.42 0.5 2.24-1.83 12.54 1.25 23.92 2.37 36.02-0.01 1.67-2.32 1.91-2.99 3.28-0.09 3.04-0.6 2.08-2.22 3.78-0.09 1.77 0.23 3.46 0.96 5.07-0.15 0.94-0.42 1.85-0.82 2.74 1.54 0.09 3.02 0.51 4.45 1.26 0.28-0.09 0.55-0.19 0.81-0.31 0.33 0.97 0.77 3.29 2.02 3.49 0.35-0.85 0.63-1.73 0.84-2.64 0.34 0.37 0.5 0.8 0.48 1.31-0.13 5.69 0.21 11.36 1 16.99-12.66-5.23-34.98-12.14-38.09-27.53a103026.54 103026.54 0 0 0-46.53-312.95c0.46 0.15 0.75-0.01 0.87-0.48-0.08-6.33-0.21-12.67-0.39-19-0.38-2.42-1.39-5.92-4.23-6.37-1.4-8.46-2.47-16.96-3.21-25.49 0.55-0.7 1.27-0.91 2.15-0.63 16.35 4.64 32.87 8.53 49.57 11.68 1.38 0.21 2.69 0.64 3.93 1.29z m349.11 380.09c13.41-126.92 26.75-253.85 40.02-380.79 17.62-3.83 35.15-7.6 52.58-12.34 1.69-0.36 1.77 1.33 1.54 2.48a76133.636 76133.636 0 0 0-53.04 362.27c-2.51 15.15-29.03 24.8-41.1 28.38zM346.04 486.34c25.61 2.09 51.26 3.6 76.94 4.52-0.17 2.47-0.65 13.75 0.29 14.92a54.82 54.82 0 0 0 2.15-7.74c0.29 11.02 0.51 22.04 0.69 33.06 2.54 104.51 5.06 209.02 7.54 313.54 0.25 11.1 0.37 22.19 0.36 33.29-3.35 0.05-6.7-0.01-10.05-0.16 0.57-1.06 1.42-1.68-0.08-2.34-5.92-2.45-12.29-1.73-18.4-0.51-0.85 0.03-1.35 0.45-1.5 1.26-11.38-1.24-22.9-2.46-34.08-4.96-0.4-4.08-0.71-8.16-0.95-12.25-7.5-120.96-15.78-242.05-22.29-363.04-0.32-3.18-0.52-6.38-0.62-9.59z m238.98-0.26c-0.53 4.67 0.35 8.82-1.02 13.41-0.61 15.44-1.46 30.83-2.53 46.19-0.36-0.3-0.58-0.68-0.64-1.16-0.01-1.41-0.12-2.81-0.32-4.18a10.48 10.48 0 0 0-0.31 3.12c-0.41 1-0.72 2.02-0.93 3.07-0.27 5.72 0.99 11.6-0.98 17.01-0.45 5.15 1.06 19.16-0.97 23.1-0.07 2.25 0.22 3.07-1 5.1-0.05 4.92-0.07 9.83-0.07 14.75-1.81 6.67-1.29 18.78-0.26 25.91-0.34 15.7-2.45 31.45-2.26 47.14-2.12 7.37 0.07 16.27-1.86 23.98-0.64 4.43 0.48 8.68-0.82 12.99-0.8 10.05-1.35 20.12-1.64 30.19-0.47-1.4-0.79-2.85-0.95-4.35-0.21 1.72-0.25 3.44-0.14 5.19-2.21 4.28-0.55 12.05-1.04 16.97-2.89 6.21 0.85 15.98-2.03 22.99 0.03 6.02 0.02 12.04-0.02 18.05-2.63 4.16 0.64 8.59-1.94 12.17 0.21 0.95 0.54 1.88 0.98 2.78 0.68 2.24-0.52 4-1.13 6.01 0.12 1.98 0.17 3.95 0.14 5.93-2.72 5.93 0.46 16.98-1.91 22.28 0.4 1.88-0.27 3.14-2.02 3.78 0.91 0.84 1.55 1.84 1.93 3.01-0.08 2.66-0.13 5.33-0.17 7.99 0.21 1.54 0.5 1.54 0.87 0.03 0.01-1 0.01-1.99 0.01-2.99 0.5-0.99 0.94-2 1.32-3.04-0.24-6.01-0.43-12.03-0.55-18.05 0.26-0.79 0.66-1.51 1.23-2.14 0.21-0.65 0.37-1.33 0.47-2.01 0.18 2.41 0.25 4.82 0.22 7.25 0.07 0.77 0.49 1.27 1.23 1.47-0.51 7-0.81 14.01-0.92 21.03-20.16 4.26-44.34 6.43-65 6.95 0.15-3.43 0.24-6.86 0.27-10.29 2.35-116.74 4.5-233.49 7.74-350.21 0.22-7.84 0.27-15.68 0.15-23.51 0.24-0.94 0.21-1.86-0.08-2.78 25.69-1.08 51.34-2.79 76.95-5.13z m-231.6 82.94c0.23 12.26 1.96 24.26 1.88 36.49 1 5.63 1.33 11.31 0.97 17.03a59.63 59.63 0 0 1 1.14 14.73c0.97 8.75 1.2 17.47 1.94 26.24-0.32 8.07 1.71 15.79 0.96 23.99 0.51 3.33 1.01 6.66 1.48 9.99-0.88 4.78 0.36 12.76 0.98 17.71 0.3 11.8 0.83 23.58 1.59 35.35 0.61 3.61 1 7.24 1.17 10.9-0.67 5.62 0.8 11.54 1.03 17.21 0.43 18.05 2.68 35.89 2.74 53.89 0.38 1.29 0.7 2.6 0.97 3.93 0.13 10.28 0.64 21.08 2.1 31.2 0.69-2.63 0.97-5.29 0.85-8.01 0.11-0.49 0.37-0.87 0.8-1.14a6.02 6.02 0 0 0 2.76-1.23c0.2-2.26 0.27-4.53 0.2-6.8-0.17-1.12-0.83-1.78-1.97-2-0.67 0.37-1.37 0.72-2.08 1.06-0.49-0.62-0.74-1.32-0.76-2.11 0.09-4.99 0.03-9.99-0.17-14.99-1.78-4.42-0.6-10.22-1.06-14.96-1.57-7.86-2.07-15.06-2.03-23.05-1.97-5.66-0.09-14.67-1.01-20.97-2.25-7.35 0.26-15.51-1.87-22.95-0.8-19.79-3.03-39.23-3.05-59.03-0.23-1.37-0.52-2.72-0.85-4.06-0.54-5.08 0.33-12.22-1.08-16.95 0.28-3.37 0.04-6.7-0.72-10-0.37-5.26 0.36-12.16-1.23-17.03-0.5-5.44 0.99-15.19-1.07-19.95-0.05-3.67-0.08-7.34-0.09-11.01-0.62-4.31-1-8.64-1.14-12.99 0.6-6.87-0.66-13.35-1.79-20.05-0.29-3.74 0.52-8.52-0.37-12.07-0.27 0.65-0.67 1.2-1.22 1.63z" fill="#E44F49" p-id="12170"></path><path d="M269 420.19c-0.96 0.7-1.85 1.46-2.69 2.29 3.06 0.34 6.12 0.68 9.2 1.03 8.13 1.75 15.7 3.57 24.06 4a53.88 53.88 0 0 0 19.87 1.39c0.27-0.19 0.4-0.45 0.39-0.79l4.18 0.72c-0.06 0.71 0.03 1.39 0.27 2.04 1.94 0.69 3.91 1.2 5.93 1.55 5.78 0.34 11.56 0.44 17.35 0.31 0.83 0.02 1.38-0.36 1.66-1.15 6.65 0.73 13.32 1.35 20 1.86-0.09 0.52 0.07 0.93 0.48 1.25 14.95 1.87 29.73 4.49 44.84 5.18 33.32-0.03 66.64-0.02 99.96 0.05 9.67-1.1 19.35-2.16 29.03-3.19 9.67-0.2 19.33-0.52 28.98-0.94 0.68-0.28 1.32-0.63 1.93-1.04 1.29 0.36 2.57 0.39 3.86 0.1 1.03-0.59 1.42-1.9 2.82-1.78 9.44-0.86 18.82 0.29 28.2-1.29 0.27-0.39 0.29-0.82 0.06-1.29 1-0.19 1.54-0.77 1.63-1.75 40.02-5.4 93.91-12.12 129.36-31.68 5.64-2.35 9.9 8.76 9.04 13.12-2.23 13.49-18.72 17.06-29.52 21.09-73.02 21.35-154.1 27.63-229.91 29.59-0.08-0.29-0.27-0.45-0.59-0.49-4.32 0.1-8.64 0.13-12.96 0.07-0.63-0.07-1.12 0.16-1.46 0.67-16.32 0.07-32.64-0.18-48.96-0.73 0.09-1.4-0.95-1.08-1.8-1.73 1.46-0.47 2.94-0.87 4.46-1.19-5.72-0.46-11.45-0.9-17.22-1.3-6.06-0.12-12.12-0.32-18.18-0.58-5.94 0.3-11.87 0.78-17.77 1.46-0.43 0.15-0.6 0.44-0.51 0.88-55.07-4.19-112.84-11.65-165.43-29.06-9.5-3.73-21.63-7.44-22.65-19.41-0.92-4.55 3.69-14.48 9.21-12.76 20.34 12.81 49.55 18.31 72.88 23.5z m393.99 56.1a345784.75 345784.75 0 0 1-40.02 380.79c-15.25 6.05-41.73 12.23-57.98 13.97 0.11-7.02 0.41-14.03 0.92-21.03 6.22-106.51 12.52-213.02 18.92-319.52 0.83-14.77 1.58-29.54 2.24-44.32 0.3-0.08 0.61-0.17 0.91-0.26 1.1 2.6 13.17 2.35 15.72 1.37 4.27-1.09 8.55-2.06 12.84-2.91-1.04-0.11-1.9-0.54-2.58-1.3 16.38-2.02 32.72-4.29 49.03-6.79z m-389.13 0.7c6.16 0.07 13.16 1.69 19.34 2.51-0.17 0.79-0.03 1.51 0.4 2.17 6.74 2.96 14.47 1.36 21.58 2.4 8.53 2.21 16.97 3.79 25.65 5.08 2.58 2.99 1.28 0.81 2.91-1.37 2.58-1 1.32 6.28 1.6 7.5 0.27 0.53 0.71 0.75 1.32 0.65 6.51 120.99 14.79 242.08 22.29 363.04-0.43-0.03-0.69 0.17-0.77 0.6 0.13 3.31 0.17 6.62 0.13 9.93-0.52 0.46-0.96 0.97-1.32 1.53-17.91-3.49-37.38-6.94-54.24-14a278352.84 278352.84 0 0 0-31.51-302.05c-2.21-25.8-6.11-52.21-7.38-77.99z m166.93 15.99c2.87 0.48 5.77 0.71 8.69 0.7 15.34 0.16 30.68 0.04 46.02-0.36 2.42-0.06 4.8-0.36 7.15-0.89 3.19 2.43 2.42 13.72 2.11 17.45 0.18 0.43 0.48 0.78 0.87 1.03 3.34 1.52 0.22 8.24-0.65 10.62 0.11 5.68 0.11 11.36 0.02 17.04 4.25 13.22-3.4 27.59 0.13 40.93-0.96 14.29-1.76 28.59-2.18 42.94 1.31 3.21 1.11 4.76 1.1 8.26-0.14 2.34-2.59 1.19-2.04 3.84 0.09 12.99 0.06 25.98-0.1 38.96 0.23 1.8 2.84 5.25-0.26 5.94 1.62 1.03 1.6 2.03-0.05 3 1.64 0.99 1.67 2.04 0.08 3.13 0.26 0.19 0.39 0.45 0.4 0.78-2.84 3.08-0.04 37.88-0.07 44.15-2.46 9.72-3.38 21.2-0.88 31-1.07 16.64-1.86 33.24-2.16 50.01 1.66 5.24 1.49 8.75-0.03 14.02 0.05 5 0.06 9.99 0.03 14.99-2.08 6.31-0.31 22.43-1.17 30 0.31 1.07 0.66 2.12 1.04 3.17-0.04 0.66-0.35 1.13-0.94 1.41-2.76 1.31-24.12 0.92-29.4 2.53-5.25-0.51-31.29-3.94-33.54 0.49-0.32-0.06-0.63-0.12-0.95-0.19 0.01-11.1-0.11-22.19-0.36-33.29-2.48-104.52-5-209.03-7.54-313.54 1.11-0.92 0.72-4.24 0.99-5.6-0.35-9.68-0.44-19.36-0.28-29.05-0.08-0.93 0.21-1.7 0.89-2.31 0.36 0.34 0.51 0.77 0.44 1.29-0.05 11.77 0.07 23.51 0.37 35.24 0.37-0.66 0.52-1.38 0.45-2.15-0.01-10.01-0.03-20.03-0.05-30.04 0.15-1.94 0.02-5.15 2.62-5.44 3.09 0.19 6.17 0.17 9.25-0.06z" fill="#FDFAF8" p-id="12171"></path><path d="M353.42 569.02c0.55-0.43 0.95-0.98 1.22-1.63 0.89 3.55 0.08 8.33 0.37 12.07 1.13 6.7 2.39 13.18 1.79 20.05 0.14 4.35 0.52 8.68 1.14 12.99 0.01 3.67 0.04 7.34 0.09 11.01 2.06 4.76 0.57 14.51 1.07 19.95 1.59 4.87 0.86 11.77 1.23 17.03 0.76 3.3 1 6.63 0.72 10 1.41 4.73 0.54 11.87 1.08 16.95 0.33 1.34 0.62 2.69 0.85 4.06 0.02 19.8 2.25 39.24 3.05 59.03 2.13 7.44-0.38 15.6 1.87 22.95 0.92 6.3-0.96 15.31 1.01 20.97-0.04 7.99 0.46 15.19 2.03 23.05 0.46 4.74-0.72 10.54 1.06 14.96 0.2 5 0.26 10 0.17 14.99 0.02 0.79 0.27 1.49 0.76 2.11 0.71-0.34 1.41-0.69 2.08-1.06 1.14 0.22 1.8 0.88 1.97 2 0.07 2.27 0 4.54-0.2 6.8a6.02 6.02 0 0 1-2.76 1.23c-0.43 0.27-0.69 0.65-0.8 1.14 0.12 2.72-0.16 5.38-0.85 8.01-1.46-10.12-1.97-20.92-2.1-31.2-0.27-1.33-0.59-2.64-0.97-3.93-0.06-18-2.31-35.84-2.74-53.89-0.23-5.67-1.7-11.59-1.03-17.21-0.17-3.66-0.56-7.29-1.17-10.9-0.76-11.77-1.29-23.55-1.59-35.35-0.62-4.95-1.86-12.93-0.98-17.71-0.47-3.33-0.97-6.66-1.48-9.99 0.75-8.2-1.28-15.92-0.96-23.99-0.74-8.77-0.97-17.49-1.94-26.24 0.23-4.96-0.15-9.88-1.14-14.73 0.36-5.72 0.03-11.4-0.97-17.03 0.08-12.23-1.65-24.23-1.88-36.49z" fill="#E7554F" p-id="12172"></path><path d="M269 420.19c16.86 3.13 33.81 5.77 50.83 7.92 0.01 0.34-0.12 0.6-0.39 0.79-6.71 0.77-13.33 0.31-19.87-1.39-8.36-0.43-15.93-2.25-24.06-4-3.08-0.35-6.14-0.69-9.2-1.03 0.84-0.83 1.73-1.59 2.69-2.29z m124.02 14.76c16.99 0.87 33.98 1.49 50.99 1.85 0.1 0.5-0.09 0.86-0.56 1.06-3.98 0.02-7.96 0.01-11.95 0-1.33-0.24-2.66-0.42-4-0.55-1.07 0.41-2.13 0.85-3.18 1.31-3.6 0.05-7.2 0.09-10.8 0.11a16.11 16.11 0 0 1-4.01-1.42c-1.98 0.37-3.99 0.49-6 0.37a6.252 6.252 0 0 1-2.97-1.02c-1.65-0.18-6.65 0.52-7.84-0.38 0.36-0.38 0.47-0.83 0.32-1.33z m32.09 56.35c27.65 0.09 55.3 0.06 82.96-0.09 0.29 0.92 0.32 1.84 0.08 2.78-0.49-0.64-1.1-1.12-1.83-1.44-0.15 0.21-0.29 0.42-0.44 0.63 0.02 5.91-0.06 11.82-0.25 17.73-0.39-0.25-0.69-0.6-0.87-1.03 0.31-3.73 1.08-15.02-2.11-17.45-2.35 0.53-4.73 0.83-7.15 0.89-15.34 0.4-30.68 0.52-46.02 0.36-2.92 0.01-5.82-0.22-8.69-0.7-0.01-0.78-0.43-1.08-1.25-0.92-4.76 0.12-9.52 0.13-14.28 0.03-0.05-0.27-0.1-0.53-0.15-0.79z m277.3 281.59c0.67 1.34 1.62 8.95 1.51 10.6-1.37 2.25-1.93 1.05-1.72 4.47-2.1 3.83-1.58 13.67-1.52 18.29-1.24 4.88-5.62 11.41-2.96 16.29 0 1.24 0 2.48-0.02 3.72-0.71 1.58-1.08 3.23-1.12 4.96-2.15 1.13-0.73 2.23-0.76 4.11-0.47 0.6-0.98 1.17-1.53 1.71-0.03 1.19-0.63 1.69-1.77 1.49 3.34-21.87 6.64-43.75 9.89-65.64z m-467.7 10.05c1.4 8.01 2.58 16.05 3.55 24.12-2.33-0.01-1.56-1.05-1.62-2.58a36.88 36.88 0 0 1-1.32-3.12c0.7-1.59 0.46-3-0.73-4.23 0.23-1.26 0.25-2.51 0.06-3.76-0.73-0.47-1.21-1.1-1.46-1.89-0.02-1.71 0.24-3.36 0.8-4.96 0.03-1.2-0.7-2.9 0.72-3.58z" fill="#E2E1E1" p-id="12173"></path><path d="M508.15 493.99c0.12 7.83 0.07 15.67-0.15 23.51-3.24 116.72-5.39 233.47-7.74 350.21-2.32 1.13 0.35 7.14-1.67 8.24-0.44-0.11-0.67-0.39-0.69-0.85 0.59-0.28 0.9-0.75 0.94-1.41-0.38-1.05-0.73-2.1-1.04-3.17 0.86-7.57-0.91-23.69 1.17-30 0.03-5 0.02-9.99-0.03-14.99 1.52-5.27 1.69-8.78 0.03-14.02 0.3-16.77 1.09-33.37 2.16-50.01-2.5-9.8-1.58-21.28 0.88-31 0.03-6.27-2.77-41.07 0.07-44.15a0.948 0.948 0 0 0-0.4-0.78c1.59-1.09 1.56-2.14-0.08-3.13 1.65-0.97 1.67-1.97 0.05-3 3.1-0.69 0.49-4.14 0.26-5.94 0.16-12.98 0.19-25.97 0.1-38.96-0.55-2.65 1.9-1.5 2.04-3.84 0.01-3.5 0.21-5.05-1.1-8.26 0.42-14.35 1.22-28.65 2.18-42.94-3.53-13.34 4.12-27.71-0.13-40.93 0.09-5.68 0.09-11.36-0.02-17.04 0.87-2.38 3.99-9.1 0.65-10.62 0.19-5.91 0.27-11.82 0.25-17.73 0.15-0.21 0.29-0.42 0.44-0.63 0.73 0.32 1.34 0.8 1.83 1.44z" fill="#FCF2F1" p-id="12174"></path><path d="M531.54 172.8c-0.88-0.06-1.6 0.24-2.15 0.92-3.18 5.53-2.07 11.64 4.2 14.13 1.21-0.14 2.4-0.45 3.57-0.93 4.69 11.1 17.85 5.85 27.08 9.37 14.97 3.9 29.53 19.63 30.48 35.15-0.02 0.51-0.22 0.93-0.6 1.25-23.72 14.22-37.11 31.06-42.4 58.67-0.48 4.24-14.29 7.56-17.38 10.94-0.69-1.48-1.88-0.67-2.96-0.28-2.71-1.57-8.7-1.51-11.77-0.93-1.09-0.46-2.9-1.85-3.61-0.12-13.08-9.43-27.69-13.95-43.83-13.54-1.22-0.65-2.5-0.91-3.86-0.77 0.43-0.47 0.78-1 1.04-1.58 1.72 0.17 3.44 0.2 5.17 0.11 3.41-1.04 3.02-2.23 6.76-0.32 0.82-0.42 1.78-2.4 1.42-3.23-1.29 0-2.55-0.14-3.77-0.44-5.16-7.21-8.04-15.75 1.42-21.27 0.15-0.59 0.24-1.2 0.28-1.84 0.32-0.6 1.91-2.09 0.86-2.69-2.88 0.93-0.27-3.84-2.19-5.19-0.15 1.67-0.32 3.37-0.51 5.1-0.57 1.44-1.07 1.43-1.48-0.02-0.28-0.35-0.64-0.46-1.07-0.32 2.53-11.77-15.63-14.69-9.67-33.09 3.03-11.19 8.43-16.55 18.8-21.02 14.44-9.78 3.25-31.68-16.29-22.21-26.13 13.51-37.97 50.74-22.01 76.3-0.44 0.77-1.02 0.84-1.73 0.23-22.79-14.81-29.51-31.53-27.49-58.56 2.91-1.42 5.23-3.49 6.95-6.22 5.47-17.52 12.11-28.93 27.99-38.97 2.27 1.49 13.32-3.3 16.29-3.77 2.18-0.57 4.39-0.96 6.61-1.17-1.05-0.56-2.02-1.23-2.93-2.01 25.67-2.61 45.04 6.57 58.78 28.32z m-184.77 53.67c3.09 3.8 10.18 1.17 13.63 7.75 0.33 1.49 0.72 2.94 1.19 4.36 0.37-1.58 0.63-3.21 0.77-4.89 0.28-0.37 0.64-0.55 1.1-0.52-0.72 14.32 3.93 28.26 11.09 40.5 0.23 0.45 0.2 0.88-0.11 1.27-21.76 8.81-39.98 26.86-48.19 48.94-0.39 0.83-0.9 1.57-1.54 2.21-11.73 2.67-22.38 5.63-32.51 12.47-0.66-2.08-9.74-5.81-11.97-6.27-1.4-1.25-1.64-1.66-3.41-0.32-0.5 0.77-1.1 1.46-1.79 2.07 0-1.01-0.06-2.04-0.2-3.1 7.54-7.86 16.14-15.35 5.94-26.05-7.84-5.87-13.7-0.74-18.83 5.4-0.33-0.2-0.46-0.51-0.38-0.9 0.43-0.98 0.59-2 0.47-3.06-7.18-6.06-11.69-9.37-9.38-19.83 0.72-0.47 1.1-1.12 1.15-1.94-0.7-1.05-1.25-2.16-1.65-3.33-0.71-0.25-1.44-0.32-2.19-0.21 2.27-14.59 9.88-25.41 22.83-32.45 0.34 1.19 3.46 2.19 4.49 2.9 6.81 2.85 11.74-5.3 18.19-5.25 0.75-0.1 4.04 1.58 3.57-0.33 5.84 1.86 13.65 3.98 18.82-0.6 8.9-9.8 15.35-15.88 28.91-18.82zM679.15 386.4c-6.07-0.64-12.12-1.46-18.16-2.44-8.66-2.77-22.69-6.2-28.84-13.11-14.39-11.73-20.81-23.57-8.4-40.48 9.36-19.35-20.52-28.37-29.33-1.57-5.41 15.59-2.98 34.78 8.32 47.31 0.29 1.29-0.2 1.76-1.46 1.4-29.72-7.79-38.96-27.35-33.21-57.15 4.11-0.77 7.26-2.95 9.46-6.52 0.38 0.57 0.87 0.71 1.46 0.43 0.9-0.75 1.61-1.64 2.11-2.69 0.43-0.08 0.8-0.27 1.1-0.57 1.48-5.26 1.44-10.5-0.13-15.73-0.34-0.34-0.74-0.44-1.2-0.31 11.3-45.55 72.17-55.82 93.5-13.9 5.5 14.01 7.68 14.93 22.79 16.36 22.14 4.77 34.2 25.6 32.07 47.38-4.72 31.61-22.65 35.64-50.08 41.59z m-255.04-86.67a75.879 75.879 0 0 1 15.92 6.67c7.51 3.63 14.91 14.74 23.97 12.67-0.24 0.48-0.14 0.87 0.3 1.17 8.74 3.52 15.27 1.36 24.01 0.66 0.31-0.1 0.52-0.29 0.63-0.59 8.63 4.5 21.94 10.86 17.35 22.76-0.53-0.13-0.99-0.01-1.37 0.39-0.63 1.73-1.06 3.5-1.29 5.32-0.73-0.61-1.28-0.52-1.65 0.24-0.8 8.37-4.17 21.39 1.54 28.57 0.58-0.16 1.14-0.38 1.68-0.66 1.88 8.58 5.1 16.63 9.67 24.15-0.39-0.14-7.15 1.75-8.73 1.1-16.74-2.23-35.33 0.69-52.3 0.43-15.93-0.47-34.1-2.67-49.81-0.46-4.4-0.92-23.29-2.94-25.17 1.25-3.95-0.33-7.9-0.67-11.85-1.02-0.05-1.47-5.59-2.9-6.76-4.1-13.77-10.91-19.73-25.18-17.41-42.76 2.53-1.49 4.6-3.47 6.21-5.93 7.74-25.19 15.37-36.39 39.82-47.85 1.89 0.33 3.78 0.32 5.68-0.03 7.21 2.46 18.92 0.79 26.78 1.17 1.9-0.15 2.82-1.2 2.78-3.15z m-180.33 2.67c0.01 0.01 12.44 11.32 13.77 12.58-7.08 7.48-9.9 17.05-10.75 27.11-0.96-0.04-1.64-0.49-2.05-1.35-6.99-12.19-6.83-23.33-3.74-36.76 1-0.38 1.93-0.91 2.77-1.58z m132.42 52.54c3.75 16.05 19.09 11.38 27.58 2.54 13.45-8 28.44-3.3 37.94 8.26 4.71 11.15 16.9 19.36 25.75 6.47 9.09-17.25-19.93-40.54-35.33-43.65-19.34-7.63-53.92 3.34-55.94 26.38z" fill="#FDE7B4" p-id="12175"></path><path d="M376.2 354.94c2.02-23.04 36.6-34.01 55.94-26.38 15.4 3.11 44.42 26.4 35.33 43.65-8.85 12.89-21.04 4.68-25.75-6.47-9.5-11.56-24.49-16.26-37.94-8.26-8.49 8.84-23.83 13.51-27.58-2.54z" fill="#F9BD51" p-id="12176"></path><path d="M568.07 320.36c-5.75 29.8 3.49 49.36 33.21 57.15 1.26 0.36 1.75-0.11 1.46-1.4 7.23 6.72 29.26 6.47 29.41-5.26 6.15 6.91 20.18 10.34 28.84 13.11 0.3 1.32 1.81 0.97 2.67 1.58-1.53 0.34-3.07 0.72-4.61 1.15a12.1 12.1 0 0 0-3.42 2.98 5.26 5.26 0 0 0-2.72-0.86c-16.9 2.77-33.8 5.26-50.7 7.49 2.31 2.08 1.71 0.85-0.11 2.27-0.02 0.23-0.03 0.46-0.04 0.69-13.99 1.31-29.32 3.35-43.27 3.34-15.77-7.59-26.36-25.16-25.26-42.76 2.47-21.1 13.99-34.26 34.54-39.48z" fill="#FCCE71" p-id="12177"></path><path d="M468.13 276.05c-0.29 2.53-0.97 7.14 1.22 9.03-0.26 0.58-0.61 1.11-1.04 1.58 1.36-0.14 2.64 0.12 3.86 0.77-7.79 1.53-10.5-3-16.4-6.78-0.15-0.94 0.11-1.74 0.76-2.4 2.65-1.99 5.51-2.37 8.58-1.13 1.54 1.26 1.45 3.39 2.18-0.34 0.21-0.33 0.49-0.58 0.84-0.73z" fill="#F6D186" p-id="12178"></path><path d="M469.35 285.08c-2.19-1.89-1.51-6.5-1.22-9.03 0.46-4.43 1.87-7.79 0.8-11.9 3.7-2.05 6.14-5.11 7.31-9.18 0.43-0.14 0.79-0.03 1.07 0.32 0.41 1.45 0.91 1.46 1.48 0.02 0.19-1.73 0.36-3.43 0.51-5.1 1.92 1.35-0.69 6.12 2.19 5.19 1.05 0.6-0.54 2.09-0.86 2.69-0.04 0.64-0.13 1.25-0.28 1.84-9.46 5.52-6.58 14.06-1.42 21.27 1.22 0.3 2.48 0.44 3.77 0.44 0.36 0.83-0.6 2.81-1.42 3.23-3.74-1.91-3.35-0.72-6.76 0.32-1.73 0.09-3.45 0.06-5.17-0.11z" fill="#FEE3A8" p-id="12179"></path></svg>